<svg xmlns="http://www.w3.org/2000/svg" version="1.0" width="512.000000pt" height="512.000000pt" viewBox="0 0 512.000000 512.000000" preserveAspectRatio="xMidYMid meet">
<metadata fill="#ea580c">
Created by potrace 1.16, written by Peter Selinger 2001-2019
</metadata>
<g transform="translate(0.000000,512.000000) scale(0.100000,-0.100000)" fill="#ea580c" stroke="none">
<path d="M1072 4777 c15 -12 89 -60 165 -106 76 -46 190 -123 253 -169 216 -160 456 -429 560 -626 24 -45 51 -89 62 -99 19 -19 23 -59 7 -92 -7 -15 -8 -10 -4 20 3 32 3 35 -5 15 -4 -14 -11 -43 -15 -64 l-6 -39 -28 54 c-55 110 -422 579 -452 579 -5 0 14 -28 42 -62 125 -156 257 -383 284 -492 8 -33 13 -61 11 -63 -2 -2 -13 25 -26 59 -59 162 -196 388 -315 516 -88 95 -235 213 -419 335 -172 113 -216 137 -320 172 -109 36 -203 35 -272 -4 -93 -54 -141 -161 -151 -338 -14 -252 68 -615 218 -964 32 -76 59 -146 59 -156 0 -58 75 -258 106 -284 8 -7 11 -27 7 -63 -11 -111 43 -196 185 -289 73 -48 63 -57 -37 -34 -60 14 -61 14 -45 -4 9 -10 35 -27 58 -38 25 -13 34 -21 22 -21 -16 0 -14 -4 11 -22 36 -28 39 -39 10 -55 l-22 -12 23 -1 c22 0 30 -14 13 -25 -17 -10 -73 -85 -64 -85 5 0 31 18 58 41 27 22 76 53 110 68 61 28 175 97 175 107 0 2 -43 -18 -96 -47 -52 -28 -97 -50 -99 -47 -9 9 15 29 108 88 53 34 97 64 97 65 0 2 -49 -22 -109 -53 -88 -46 -113 -55 -127 -46 -29 17 -28 34 0 34 14 0 36 10 48 22 l22 22 -28 7 c-15 4 -34 13 -42 20 -13 11 -11 15 18 30 l33 17 -41 -5 c-41 -5 -84 9 -84 27 0 6 7 10 16 10 29 0 5 17 -56 39 -83 30 -113 71 -118 160 l-4 66 23 -20 23 -20 -15 25 c-63 100 -81 134 -103 202 -27 80 -33 133 -16 143 19 12 50 -6 66 -38 9 -17 65 -79 124 -137 103 -101 141 -151 175 -232 19 -46 12 -50 -10 -7 -19 36 -30 33 -16 -5 12 -29 12 -30 -23 -16 -14 5 -26 8 -26 5 0 -4 118 -95 125 -95 2 0 30 23 62 51 32 28 92 71 133 96 70 42 206 133 198 133 -1 0 -24 -7 -50 -15 -27 -8 -48 -12 -48 -11 0 8 99 67 136 81 l39 15 -50 -5 c-42 -4 -47 -3 -31 8 10 6 61 40 112 75 52 34 98 62 102 62 26 1 32 17 17 46 -8 16 -15 39 -15 52 0 19 3 21 19 13 17 -9 20 -6 26 34 7 52 17 57 32 18 10 -27 11 -26 12 17 l1 45 18 -23 18 -23 12 26 c7 14 12 38 12 52 0 38 11 21 25 -39 l12 -53 13 63 c7 34 16 62 20 62 4 0 15 -15 24 -32 15 -31 16 -32 16 -8 0 17 3 21 8 12 6 -8 24 21 55 85 67 143 72 168 47 245 -12 35 -28 73 -36 85 -8 12 -14 25 -14 28 0 5 72 -45 127 -87 8 -7 10 -3 7 14 -5 21 -4 21 6 5 6 -10 9 -26 5 -35 -3 -9 -3 -13 2 -9 4 5 13 -9 19 -30 l12 -38 1 35 c1 19 -3 50 -8 68 -11 36 -9 36 47 -6 18 -13 38 -34 43 -46 8 -17 9 -15 6 15 -3 36 -3 37 20 20 12 -9 27 -27 32 -41 7 -19 10 -20 10 -7 1 10 -4 28 -9 40 -7 15 -1 11 18 -10 16 -18 32 -33 36 -33 4 0 18 12 31 26 27 29 30 22 16 -38 -11 -48 -6 -48 18 1 11 21 31 52 45 68 14 17 30 42 36 57 l10 27 -30 -21 c-16 -11 -32 -25 -35 -30 -3 -5 -19 5 -36 23 -16 18 -29 28 -28 22 1 -5 1 -21 0 -35 -1 -24 -3 -24 -36 15 -36 42 -41 42 -25 1 5 -14 7 -26 3 -26 -3 0 -32 18 -64 40 -33 22 -59 38 -59 35 0 -3 7 -20 16 -38 l16 -32 -41 40 c-22 21 -41 35 -41 29 0 -5 5 -15 12 -22 6 -6 9 -15 5 -18 -3 -4 -20 7 -37 24 l-31 31 -6 -29 c-5 -26 -8 -28 -26 -18 -12 6 -46 35 -75 65 -30 30 -52 47 -49 39 15 -40 -16 -19 -67 43 -212 264 -517 500 -858 666 -66 32 -102 45 -86 32z m-252 -109 l55 -26 -40 -2 -40 -1 38 -14 c47 -18 159 -77 154 -82 -2 -2 -26 6 -52 17 -26 11 -50 19 -52 17 -2 -3 22 -15 54 -27 64 -25 166 -80 161 -86 -2 -2 -21 1 -42 7 -21 6 -40 9 -42 6 -2 -2 23 -11 57 -21 62 -17 164 -64 157 -72 -2 -2 -20 1 -39 6 -35 11 -248 60 -257 60 -25 0 31 -17 174 -54 180 -46 192 -51 324 -129 194 -116 283 -205 382 -387 67 -123 88 -190 87 -277 l-1 -78 -12 63 c-12 69 -26 73 -26 8 l-1 -41 -15 25 -15 25 5 -25 c3 -14 8 -38 12 -54 l7 -29 -39 27 c-48 32 -65 34 -36 3 12 -13 22 -28 22 -34 0 -14 -37 -27 -70 -25 -16 1 -12 -3 14 -11 34 -10 37 -14 23 -25 -12 -10 -25 -10 -61 -1 -26 6 -50 9 -53 5 -4 -3 1 -6 11 -6 23 0 84 -32 69 -37 -22 -8 -153 39 -220 79 -187 110 -222 132 -220 135 2 1 32 -9 67 -24 76 -30 263 -78 340 -87 43 -5 30 1 -55 23 -61 16 -136 41 -168 55 -75 33 -190 113 -247 171 l-45 47 55 -37 c72 -49 135 -80 239 -120 137 -52 171 -52 63 -1 -79 38 -302 173 -302 182 0 2 28 -10 63 -26 133 -62 159 -47 42 24 -73 44 -100 57 -79 37 5 -5 36 -26 68 -45 33 -20 57 -36 54 -36 -22 0 -184 85 -234 123 -54 41 -140 134 -103 112 8 -5 43 -27 79 -50 113 -71 115 -71 20 5 -61 48 -81 66 -64 57 20 -11 114 -47 114 -43 0 2 -47 34 -105 72 -105 68 -122 84 -70 64 15 -6 29 -9 31 -7 2 2 -26 25 -61 52 -36 27 -65 50 -65 51 0 2 25 -8 55 -22 72 -31 77 -30 27 6 -48 35 -53 44 -16 29 15 -5 29 -7 32 -4 3 3 1 5 -5 5 -13 0 -136 80 -131 85 2 3 28 -5 57 -16 69 -26 77 -18 14 15 -26 14 -68 44 -93 67 -43 39 -35 40 20 2 24 -17 25 -17 10 1 -28 36 -132 96 -165 96 -57 0 -68 -33 -40 -123 8 -26 12 -54 9 -62 -7 -17 25 -116 72 -228 20 -49 27 -74 17 -66 -48 40 94 -203 165 -283 26 -29 54 -62 62 -73 15 -20 15 -20 -10 0 -14 10 -56 49 -94 85 -73 68 -72 61 5 -30 53 -63 97 -136 102 -168 2 -12 13 -32 25 -45 29 -31 28 -43 -1 -24 -13 9 -41 23 -63 31 -39 16 -38 16 24 -42 34 -32 62 -61 62 -65 0 -4 -21 7 -47 23 -66 42 -74 37 -15 -10 75 -58 72 -64 -15 -25 l-78 36 65 -59 c36 -33 73 -74 84 -92 l18 -32 -33 18 c-33 16 -34 16 -18 -2 9 -11 34 -46 54 -79 l38 -60 -68 70 c-37 39 -56 54 -42 35 15 -19 45 -62 69 -95 l42 -60 -34 25 -34 25 22 -36 c32 -52 28 -54 -24 -17 -63 45 -116 106 -181 212 -64 103 -85 159 -117 311 -13 61 -36 139 -50 175 -15 36 -24 54 -21 40 2 -14 12 -63 21 -110 8 -47 22 -118 29 -159 8 -41 30 -107 49 -147 l34 -72 -25 -5 c-23 -4 -28 2 -58 67 -49 106 -161 411 -194 529 -46 163 -64 287 -65 442 -1 121 2 149 22 206 24 71 68 129 117 154 44 23 137 15 205 -17z m1257 -1130 c-3 -8 -6 -5 -6 6 -1 11 2 17 5 13 3 -3 4 -12 1 -19z m-629 -267 c42 -55 63 -91 53 -91 -5 0 -38 20 -74 45 -35 24 -67 42 -70 39 -4 -5 -94 114 -111 146 -4 8 18 -12 49 -45 61 -64 42 -27 -28 55 -22 25 -44 54 -50 65 -14 26 196 -168 231 -214z m132 148 c19 -5 42 -13 50 -19 28 -18 -12 -11 -86 15 -65 23 -46 26 36 4z m-237 -244 c75 -49 110 -81 106 -94 -6 -16 -109 54 -184 124 -57 54 -58 56 -17 31 23 -15 66 -42 95 -61z m125 -15 c6 -18 -95 68 -103 88 -3 8 18 -5 47 -30 28 -24 54 -51 56 -58z m-178 -6 c0 -2 -9 0 -20 6 -11 6 -20 13 -20 16 0 2 9 0 20 -6 11 -6 20 -13 20 -16z m44 -83 c-4 -5 -84 42 -114 68 -14 12 7 2 46 -21 40 -24 70 -45 68 -47z m-34 -147 c0 -9 -37 15 -51 33 -10 12 -5 11 19 -6 17 -12 32 -24 32 -27z" fill="#ea580c"/>
<path d="M695 4545 c-5 -2 -22 -6 -37 -9 -17 -4 -34 -18 -44 -38 -35 -68 5 -369 67 -502 16 -34 18 -36 13 -11 -67 336 -75 498 -28 532 22 16 87 17 117 2 21 -10 21 -10 3 5 -11 9 -28 16 -37 16 -10 0 -23 2 -31 4 -7 3 -17 3 -23 1z" fill="#ea580c"/>
<path d="M1090 4339 c25 -6 98 -24 164 -40 123 -31 157 -33 84 -6 -85 31 -154 47 -223 52 -66 4 -67 4 -25 -6z" fill="#ea580c"/>
<path d="M1095 4283 c11 -2 87 -20 168 -40 82 -19 150 -33 153 -31 9 9 -275 78 -316 77 -20 -1 -21 -2 -5 -6z" fill="#ea580c"/>
<path d="M1100 4234 c39 -18 372 -105 378 -100 8 9 -368 117 -402 116 -6 -1 5 -8 24 -16z" fill="#ea580c"/>
<path d="M1174 4144 c50 -18 338 -85 343 -80 8 8 -124 47 -241 71 -130 28 -160 31 -102 9z" fill="#ea580c"/>
<path d="M1162 4105 c6 -6 390 -115 403 -114 22 1 -154 61 -262 89 -109 28 -152 36 -141 25z" fill="#ea580c"/>
<path d="M1305 4026 c61 -28 296 -108 302 -103 2 3 -43 23 -99 47 -150 62 -320 109 -203 56z" fill="#ea580c"/>
<path d="M1365 3945 c59 -34 197 -89 252 -100 24 -5 23 -3 -9 15 -40 22 -282 120 -295 120 -4 0 19 -16 52 -35z" fill="#ea580c"/>
<path d="M1424 3886 c39 -32 138 -80 210 -101 74 -22 82 -14 14 13 -29 11 -98 41 -153 66 -77 35 -93 40 -71 22z" fill="#ea580c"/>
<path d="M1450 3787 c0 -10 154 -65 200 -71 65 -10 32 7 -76 38 -50 14 -99 28 -108 32 -9 3 -16 4 -16 1z" fill="#ea580c"/>
<path d="M1516 3730 c13 -13 136 -56 184 -64 26 -4 19 0 -25 18 -83 33 -171 58 -159 46z" fill="#ea580c"/>
<path d="M960 3556 c24 -26 60 -52 60 -42 0 2 -19 19 -42 37 -40 30 -41 31 -18 5z" fill="#ea580c"/>
<path d="M4330 4714 c-30 -8 -109 -41 -175 -74 -121 -59 -403 -234 -440 -272 l-20 -21 30 20 c17 11 36 23 42 27 7 4 -40 -46 -105 -111 -138 -138 -224 -261 -325 -462 -74 -149 -83 -143 -11 8 44 94 126 227 191 311 l35 45 -42 -45 c-67 -74 -178 -244 -231 -355 -46 -95 -78 -205 -79 -264 0 -14 -15 -38 -39 -61 -21 -20 -40 -49 -43 -64 -7 -34 -2 -33 17 4 16 31 68 70 94 70 11 0 9 -6 -6 -22 -49 -55 -58 -106 -10 -61 34 32 76 58 83 50 2 -2 -7 -24 -21 -49 l-25 -45 47 23 c25 13 58 24 72 24 l26 -1 -28 -20 c-15 -12 -34 -34 -43 -51 l-15 -29 30 15 c16 9 52 16 78 16 l48 0 -50 -34 c-28 -18 -59 -44 -70 -56 -20 -23 -19 -23 25 2 25 14 61 28 80 32 l35 6 -43 -26 c-51 -31 -49 -42 3 -19 21 8 40 13 43 10 3 -2 -3 -7 -12 -11 -24 -9 -20 -24 7 -24 13 0 32 -7 43 -15 19 -14 19 -14 -1 -15 -15 -1 -11 -6 14 -17 27 -11 32 -17 20 -24 -15 -10 -14 -11 38 -47 19 -13 13 -12 -47 5 -8 2 -5 -2 8 -10 l24 -14 -24 -17 c-13 -10 -16 -15 -7 -12 17 5 119 -38 119 -50 0 -3 -12 -3 -27 0 -16 3 6 -12 47 -34 l75 -39 -74 -1 c-41 0 -72 -2 -69 -5 2 -3 40 -11 84 -19 96 -16 150 -42 192 -91 34 -38 39 -54 22 -71 -7 -7 -1 -18 17 -34 l28 -24 -22 23 -22 24 44 42 c24 24 65 51 92 61 123 45 167 65 203 94 48 38 54 62 7 26 -56 -43 -141 -76 -211 -83 -36 -3 -66 -3 -66 1 0 4 24 18 53 32 39 19 44 24 22 20 -16 -3 -57 -8 -90 -10 -59 -6 -59 -6 23 14 119 28 236 92 284 155 38 50 50 77 128 273 135 343 206 578 224 742 5 45 1 36 -22 -50 -98 -355 -145 -508 -166 -544 -13 -23 -49 -69 -80 -103 -49 -54 -55 -64 -47 -86 28 -73 -11 -171 -101 -251 -72 -65 -123 -93 -190 -104 -80 -12 -62 5 51 52 49 21 95 44 101 51 7 8 -18 1 -55 -16 -37 -16 -69 -28 -71 -26 -3 2 17 18 43 35 26 17 68 52 93 78 37 39 39 43 13 24 -18 -13 -33 -28 -33 -32 0 -5 -4 -7 -9 -3 -6 3 -14 -3 -20 -12 -6 -10 -11 -13 -11 -8 0 7 -3 7 -8 0 -4 -5 -22 -18 -40 -27 -35 -19 -34 -11 2 31 23 26 23 26 -32 4 -29 -12 39 98 73 119 41 23 44 28 13 20 -23 -5 -23 -5 -4 16 21 24 16 28 -17 11 -48 -25 8 20 63 50 54 30 57 41 4 21 -45 -18 -38 -4 26 49 64 54 68 61 19 35 -57 -29 -39 -8 22 26 33 19 65 40 71 47 12 15 -68 -19 -129 -54 -61 -35 -53 -22 20 33 72 54 137 114 137 126 0 5 -25 -12 -55 -37 -31 -25 -58 -45 -60 -45 -3 0 16 21 42 48 47 48 126 150 145 187 10 19 10 19 -13 -1 -24 -21 -62 -44 -74 -44 -3 0 12 21 33 48 81 96 151 254 198 447 32 134 32 194 -2 234 -30 36 -67 40 -145 15 -49 -16 -69 -31 -26 -19 20 5 21 4 4 -7 -11 -7 -53 -35 -95 -62 -69 -43 -70 -51 -5 -30 26 8 -14 -25 -105 -86 -80 -54 -81 -62 -5 -29 54 23 52 21 -34 -45 -95 -71 -92 -82 7 -29 l45 25 -35 -29 c-19 -15 -68 -59 -110 -97 -84 -78 -120 -96 -310 -155 -166 -52 -158 -49 -139 -50 32 -2 250 58 304 83 30 13 98 56 152 94 54 37 105 72 113 77 37 20 -55 -65 -152 -142 -105 -82 -168 -117 -296 -163 -34 -13 -61 -25 -58 -27 7 -7 183 43 254 72 35 14 83 37 105 51 38 23 36 19 -25 -40 -45 -43 -91 -76 -140 -100 -68 -32 -103 -44 -278 -92 -36 -10 -89 -28 -119 -41 -30 -13 -56 -21 -58 -19 -9 8 27 64 57 90 38 31 30 34 -16 5 -45 -27 -43 -18 9 38 25 27 33 42 21 35 -27 -14 -97 -88 -130 -136 -14 -20 -27 -36 -30 -36 -6 0 43 91 75 140 13 20 14 23 1 16 -8 -5 -24 -16 -34 -25 -36 -29 67 109 110 149 24 22 40 40 35 40 -17 0 -100 -82 -131 -130 -18 -27 -34 -50 -37 -50 -15 0 62 115 117 174 38 41 53 62 35 49 -16 -11 -40 -25 -53 -32 -21 -11 -20 -9 9 46 123 228 283 348 592 444 75 24 135 44 133 46 -2 2 -39 -5 -82 -17 -43 -11 -85 -20 -93 -19 -18 1 76 48 99 50 8 1 2 4 -14 8 -28 6 -26 7 41 41 39 19 67 38 61 41 -11 7 108 71 197 104 111 42 222 29 277 -32 34 -38 68 -131 83 -229 30 -198 15 -430 -46 -739 -38 -191 -76 -303 -148 -440 -32 -60 -73 -145 -90 -187 -37 -87 -85 -164 -112 -178 -12 -7 -2 17 31 71 49 81 60 106 40 94 -19 -12 -10 14 18 46 15 18 21 30 15 25 -19 -11 -16 0 13 45 27 43 67 130 62 135 -2 1 -36 -41 -75 -94 -64 -85 -73 -102 -73 -140 0 -49 -31 -115 -87 -188 -21 -27 -56 -85 -78 -128 -37 -72 -45 -82 -100 -112 -48 -27 -55 -34 -35 -34 25 -1 25 -1 -7 -29 -18 -15 -33 -31 -33 -34 0 -12 50 -7 87 8 20 8 38 13 40 11 3 -2 -11 -21 -30 -42 -31 -34 -40 -38 -78 -38 -24 1 -36 -1 -26 -3 32 -8 18 -25 -15 -18 -69 14 -129 38 -190 76 l-63 39 44 -38 c24 -22 85 -60 137 -86 69 -34 97 -54 109 -75 l15 -30 -48 21 c-26 11 -67 32 -92 45 l-45 25 26 -24 c14 -12 80 -63 146 -111 66 -48 132 -104 147 -125 14 -20 26 -33 26 -29 0 18 -34 72 -72 113 -22 24 -35 44 -28 44 9 0 5 9 -8 23 -27 29 -28 41 -2 34 17 -4 16 0 -10 29 -38 44 -38 59 0 39 30 -16 40 -9 18 13 -9 9 -9 12 0 12 17 0 72 79 72 104 0 14 13 28 37 41 52 28 71 60 87 142 12 65 19 79 65 128 28 31 63 84 78 118 15 34 52 109 82 167 133 256 155 312 185 480 75 411 75 794 -1 963 -31 69 -94 129 -160 151 -57 20 -168 19 -243 0z m-350 -959 c0 -2 -10 -9 -22 -15 -22 -11 -22 -10 -4 4 21 17 26 19 26 11z m-56 -35 c-5 -5 -61 -33 -124 -61 -63 -27 -100 -47 -81 -44 40 9 158 56 220 90 l46 25 -43 -39 c-50 -46 -96 -70 -225 -116 -50 -19 -87 -34 -80 -35 23 0 153 30 210 50 56 19 57 19 33 0 -14 -10 -71 -45 -127 -76 -57 -32 -101 -59 -99 -61 4 -5 103 31 181 66 89 39 54 10 -41 -35 -68 -32 -203 -74 -234 -74 -8 1 1 10 20 20 l35 20 -40 -6 c-30 -4 -36 -3 -25 5 12 8 8 11 -20 12 l-35 1 35 12 35 13 -45 7 -45 8 50 25 c48 24 42 25 -30 7 -18 -5 -18 -4 -3 8 9 7 25 18 35 25 32 21 -27 16 -72 -7 l-40 -19 30 24 c37 31 150 70 274 96 52 11 119 31 150 44 64 27 69 29 55 15z m-65 -337 c-59 -69 -116 -126 -144 -145 -16 -12 13 22 65 76 91 93 129 125 79 69z m-3 -192 c-43 -43 -97 -89 -119 -101 l-42 -23 30 32 c31 32 196 169 205 170 2 1 -31 -34 -74 -78z m-1 -110 c-6 -11 -109 -51 -128 -50 -7 0 20 13 58 29 82 34 78 33 70 21z m429 -370 c-16 -86 -34 -115 -85 -135 -55 -22 -56 -21 -15 24 20 23 48 66 61 97 23 50 42 83 50 83 2 0 -3 -31 -11 -69z" fill="#ea580c"/>
<path d="M4385 4589 c-22 -10 -44 -24 -50 -30 -5 -6 6 -3 25 6 20 10 67 20 108 23 91 6 155 -16 183 -62 11 -18 19 -24 19 -15 0 25 -40 70 -76 85 -50 21 -161 17 -209 -7z" fill="#ea580c"/>
<path d="M3712 4535 c-83 -39 -212 -121 -322 -205 -74 -57 -230 -211 -262 -260 -15 -22 -17 -23 -17 -6 -1 15 -14 6 -58 -38 -32 -32 -59 -54 -61 -48 -1 5 -9 18 -17 28 -12 16 -14 16 -15 3 0 -15 -30 -47 -58 -64 -11 -6 -12 -3 -3 14 15 27 7 27 -32 -1 l-30 -22 5 22 c8 29 5 28 -31 -10 l-31 -33 0 30 0 29 -40 -39 c-22 -21 -41 -37 -43 -34 -2 2 -9 12 -14 23 -9 17 -12 15 -30 -15 -12 -19 -24 -50 -28 -68 l-7 -35 27 30 26 29 -6 -30 c-7 -30 -7 -30 33 13 46 50 59 54 36 11 l-16 -32 48 34 c29 21 49 30 51 22 3 -7 23 -1 60 18 64 34 89 37 78 12 -13 -31 -35 -106 -35 -117 0 -6 12 9 25 33 14 24 43 64 64 90 21 25 45 60 54 76 24 44 21 21 -9 -77 -28 -90 -39 -106 -47 -65 -2 12 -5 -23 -6 -78 -3 -111 -18 -107 -21 5 -3 128 -20 13 -22 -155 -3 -149 -1 -163 20 -205 12 -25 20 -36 17 -25 -4 11 -9 48 -12 84 -5 52 -3 65 10 72 8 5 25 39 37 77 44 132 127 275 288 492 115 155 241 278 382 373 123 83 127 96 12 42z" fill="#ea580c"/>
<path d="M4413 4493 c9 -2 23 -2 30 0 6 3 -1 5 -18 5 -16 0 -22 -2 -12 -5z" fill="#ea580c"/>
<path d="M4179 4396 c-2 -2 -65 -18 -139 -34 -129 -29 -256 -69 -247 -78 2 -2 24 3 48 12 24 8 100 29 169 45 173 40 231 57 199 58 -14 1 -28 -1 -30 -3z" fill="#ea580c"/>
<path d="M1515 4330 c10 -11 20 -20 23 -20 3 0 -3 9 -13 20 -10 11 -20 20 -23 20 -3 0 3 -9 13 -20z" fill="#ea580c"/>
<path d="M3649 4313 l-34 -38 38 34 c20 19 37 36 37 38 0 8 -8 0 -41 -34z" fill="#ea580c"/>
<path d="M4108 4333 c7 -3 16 -2 19 1 4 3 -2 6 -13 5 -11 0 -14 -3 -6 -6z" fill="#ea580c"/>
<path d="M4015 4319 c-73 -17 -210 -62 -200 -65 6 -2 71 14 145 35 123 36 154 53 55 30z" fill="#ea580c"/>
<path d="M3945 4231 c-38 -11 -86 -26 -105 -35 l-35 -16 33 6 c18 3 77 19 130 34 107 31 88 40 -23 11z" fill="#ea580c"/>
<path d="M4038 4183 c6 -2 18 -2 25 0 6 3 1 5 -13 5 -14 0 -19 -2 -12 -5z" fill="#ea580c"/>
<path d="M3905 4164 c-77 -17 -154 -42 -135 -43 8 0 69 12 135 28 66 16 107 29 90 29 -16 0 -57 -6 -90 -14z" fill="#ea580c"/>
<path d="M3950 4109 c-127 -28 -251 -61 -246 -66 6 -7 248 45 306 66 69 25 49 25 -60 0z" fill="#ea580c"/>
<path d="M4049 4083 c-13 -16 -12 -17 4 -4 9 7 17 15 17 17 0 8 -8 3 -21 -13z" fill="#ea580c"/>
<path d="M3858 4010 c-201 -66 -241 -90 -85 -51 81 21 223 77 233 92 7 12 20 15 -148 -41z" fill="#ea580c"/>
<path d="M2797 3772 c-8 -21 -18 -56 -21 -78 -4 -25 3 -13 19 36 26 80 27 105 2 42z" fill="#ea580c"/>
<path d="M2246 3714 c6 -46 -5 -106 -41 -230 -3 -10 7 6 21 36 30 62 43 178 25 220 -8 20 -9 16 -5 -26z" fill="#ea580c"/>
<path d="M2881 3656 c-13 -51 -13 -129 -1 -166 6 -17 7 -9 4 25 -3 28 -1 79 5 114 12 76 8 91 -8 27z" fill="#ea580c"/>
<path d="M2756 3538 c2 -37 9 -78 14 -90 12 -32 11 -5 -6 82 l-13 75 5 -67z" fill="#ea580c"/>
<path d="M2361 3574 c0 -11 -19 -57 -41 -102 -21 -45 -38 -82 -36 -82 2 0 17 21 34 48 35 55 55 114 49 139 -4 15 -5 14 -6 -3z" fill="#ea580c"/>
<path d="M2918 3546 c-5 -27 -7 -92 -7 -145 l2 -96 9 70 c5 39 7 104 6 145 -3 74 -3 74 -10 26z" fill="#ea580c"/>
<path d="M2541 3545 c-1 -11 -4 -31 -6 -45 -4 -20 -4 -21 3 -5 6 13 11 -23 15 -105 5 -84 15 -156 32 -219 16 -61 25 -124 26 -175 1 -67 2 -76 10 -51 16 47 22 224 10 285 l-10 55 4 -60 c12 -169 -38 -23 -56 163 -10 103 -26 194 -28 157z" fill="#ea580c"/>
<path d="M2491 3324 c0 -11 3 -14 6 -6 3 7 2 16 -1 19 -3 4 -6 -2 -5 -13z" fill="#ea580c"/>
<path d="M2501 3285 c0 -11 15 -65 34 -120 19 -55 32 -84 29 -65 -9 51 -62 209 -63 185z" fill="#ea580c"/>
<path d="M2826 3215 c-11 -104 -40 -220 -101 -405 -29 -91 -56 -190 -59 -220 -6 -54 -6 -54 13 20 11 41 36 120 57 175 68 186 114 399 102 475 -2 14 -7 -6 -12 -45z" fill="#ea580c"/>
<path d="M2225 3110 c4 -151 19 -219 81 -360 20 -47 48 -114 61 -150 19 -51 23 -57 19 -28 -2 20 -27 90 -54 155 -64 150 -81 216 -97 383 l-14 135 4 -135z" fill="#ea580c"/>
<path d="M2321 3170 c-8 -128 8 -201 81 -375 27 -65 58 -151 68 -190 l17 -70 7 45 c4 25 3 83 -3 130 -6 46 -12 123 -12 170 -1 82 -2 83 -10 35 -9 -46 -6 -116 7 -220 l5 -40 -19 50 c-10 28 -29 70 -42 95 -50 97 -84 232 -93 370 l-4 45 -2 -45z" fill="#ea580c"/>
<path d="M2680 3115 c-13 -41 -21 -77 -18 -80 3 -3 15 29 28 71 12 41 20 77 18 80 -3 2 -15 -30 -28 -71z" fill="#ea580c"/>
<path d="M950 2977 c46 -49 50 -52 50 -39 0 4 -21 25 -47 46 l-48 39 45 -46z" fill="#ea580c"/>
<path d="M2951 2912 c-102 -90 -221 -265 -246 -362 -4 -14 13 13 37 60 59 116 128 212 211 293 39 37 68 67 66 67 -2 0 -33 -26 -68 -58z" fill="#ea580c"/>
<path d="M1463 2900 c-29 -17 -53 -33 -53 -36 0 -5 88 43 105 58 17 15 0 8 -52 -22z" fill="#ea580c"/>
<path d="M1487 2836 c-65 -27 -115 -58 -167 -106 -32 -29 -29 -32 17 -13 10 4 -2 -11 -25 -32 -24 -21 -53 -52 -65 -69 -20 -29 -19 -29 28 10 28 23 69 54 93 69 30 20 39 31 30 36 -7 4 -16 3 -20 -4 -4 -6 -11 -8 -15 -3 -12 12 54 63 132 101 81 40 77 45 -8 11z" fill="#ea580c"/>
<path d="M3062 2825 c-58 -51 -134 -169 -160 -251 -22 -69 -43 -190 -34 -199 3 -2 14 14 25 37 47 95 172 186 322 234 38 13 61 23 49 24 -32 0 -142 -38 -209 -73 -33 -18 -83 -56 -112 -85 -57 -57 -61 -54 -37 29 25 86 81 183 146 254 33 36 58 65 56 65 -3 0 -23 -16 -46 -35z" fill="#ea580c"/>
<path d="M3710 2846 c0 -3 21 -20 48 -37 26 -18 39 -24 30 -13 -17 20 -78 59 -78 50z" fill="#ea580c"/>
<path d="M1895 2792 c186 -97 317 -212 384 -337 14 -25 19 -31 15 -15 -18 73 -94 166 -201 247 -72 54 -253 153 -277 153 -6 0 30 -22 79 -48z" fill="#ea580c"/>
<path d="M2215 2738 c48 -105 92 -236 105 -318 l9 -55 -4 61 c-6 80 -47 207 -101 317 -24 48 -46 87 -48 87 -3 0 15 -42 39 -92z" fill="#ea580c"/>
<path d="M2542 2704 c-20 -183 -25 -249 -18 -243 8 7 39 325 34 341 -2 6 -10 -38 -16 -98z" fill="#ea580c"/>
<path d="M2841 2730 c-68 -111 -90 -230 -72 -400 9 -83 18 -118 42 -169 l32 -64 -18 -51 c-10 -28 -23 -57 -29 -65 -22 -28 -11 -141 21 -216 16 -38 44 -115 62 -171 19 -61 56 -141 91 -202 l58 -101 -65 -41 c-74 -46 -81 -64 -9 -24 38 21 49 24 61 14 27 -22 16 -37 -50 -65 -36 -16 -65 -32 -65 -37 0 -11 1 -11 64 17 67 30 78 31 74 8 -1 -10 1 -23 5 -30 5 -8 -3 -15 -24 -21 -18 -4 -34 -13 -36 -19 -3 -9 5 -9 29 -2 47 13 46 13 35 -30 -9 -34 -16 -40 -44 -46 -18 -3 -35 -11 -39 -17 -5 -7 4 -9 30 -4 27 5 36 4 36 -7 0 -17 -47 -63 -80 -77 -21 -9 -21 -10 -3 -6 32 6 19 -17 -27 -48 -66 -44 -142 -60 -252 -53 -134 8 -145 16 -82 58 79 54 139 121 158 174 23 70 21 135 -6 175 -45 65 -58 70 -223 72 -143 3 -151 2 -183 -20 -78 -56 -93 -168 -36 -273 24 -43 44 -62 113 -107 104 -67 99 -76 -42 -77 -119 0 -191 18 -258 67 l-44 32 34 7 c19 4 41 5 49 1 10 -3 13 -1 8 6 -4 7 -30 12 -57 12 -44 0 -54 4 -80 32 -16 18 -29 36 -29 40 0 4 19 8 43 10 42 4 37 11 -14 22 -20 4 -28 13 -31 36 -3 16 -3 30 -2 30 2 0 24 -7 49 -16 26 -8 52 -13 58 -11 7 3 0 8 -15 12 -16 4 -28 11 -28 15 0 4 -16 11 -35 14 -28 6 -35 11 -35 31 0 36 15 39 75 11 30 -14 55 -20 55 -15 0 6 -27 23 -60 37 -51 23 -59 30 -54 47 11 34 20 37 58 15 46 -28 47 -13 0 19 -43 30 -42 39 26 159 53 94 145 310 136 320 -3 3 -16 -19 -28 -49 -43 -108 -193 -389 -206 -389 -8 0 -51 36 -96 80 -51 50 -106 93 -147 115 -63 33 -249 85 -304 85 -49 0 -21 27 65 62 31 13 36 17 15 13 -59 -12 -143 -57 -181 -98 -39 -40 -39 -40 -4 -13 31 26 38 28 93 21 86 -9 222 -51 297 -91 36 -19 94 -61 130 -94 l65 -59 -75 39 c-82 42 -202 85 -265 94 -22 4 5 -9 60 -27 174 -58 335 -148 335 -188 0 -10 -2 -19 -5 -19 -3 0 -36 15 -73 34 -90 44 -196 86 -219 85 -10 0 0 -7 22 -15 90 -32 255 -118 243 -126 -9 -5 -7 -8 6 -8 11 0 17 -3 13 -6 -10 -11 -131 38 -253 102 -126 66 -250 105 -329 103 l-40 -1 35 -8 c112 -26 196 -53 247 -79 l58 -30 -60 5 c-172 16 -463 -76 -585 -186 l-35 -31 35 25 c60 42 222 116 316 142 71 20 117 26 229 29 77 2 127 2 110 -1 -16 -2 -66 -9 -110 -15 -44 -6 -93 -16 -108 -22 -24 -10 -6 -12 105 -12 100 -1 140 -5 162 -16 27 -15 25 -16 -68 -17 -107 -1 -178 -18 -268 -63 -77 -39 -74 -45 5 -9 85 40 168 60 247 60 88 0 109 -15 32 -23 -57 -6 -228 -54 -220 -62 2 -2 32 4 66 15 93 29 223 46 263 34 33 -10 32 -11 -46 -28 -106 -23 -264 -71 -334 -102 -58 -26 -211 -113 -211 -120 0 -2 37 16 83 40 90 49 236 108 325 130 31 8 102 17 157 19 55 3 89 3 75 0 -149 -26 -318 -91 -357 -136 -18 -20 -17 -20 13 1 103 71 420 148 401 98 -4 -10 2 -16 16 -18 37 -5 21 -22 -31 -33 -64 -15 -201 -72 -233 -97 -24 -19 -24 -19 16 0 97 47 267 98 286 86 5 -3 -12 -22 -38 -41 -115 -86 -210 -198 -253 -299 -31 -70 -24 -66 24 18 51 90 121 175 174 211 50 35 139 64 154 49 7 -7 -4 -18 -41 -36 -28 -15 -79 -53 -113 -87 l-63 -60 67 53 c36 29 86 64 110 78 l43 24 -33 -41 c-17 -22 -32 -46 -32 -53 0 -6 18 11 40 39 44 55 51 59 70 36 13 -15 7 -30 -11 -30 -5 0 -9 -4 -8 -9 0 -5 -4 -12 -9 -15 -10 -6 -52 -85 -52 -98 0 -4 13 13 28 38 39 60 69 86 84 71 8 -8 5 -31 -11 -87 -13 -42 -21 -78 -19 -81 3 -2 13 23 23 56 10 33 21 60 25 60 4 0 12 -11 18 -24 5 -13 36 -45 68 -72 32 -27 90 -80 128 -117 57 -57 65 -63 48 -32 -28 46 -28 68 -1 36 l20 -25 -7 29 c-9 35 9 27 38 -19 17 -28 19 -28 13 -6 -4 19 1 15 19 -15 14 -22 26 -44 27 -50 2 -20 17 41 18 73 1 30 3 32 37 32 29 0 34 -3 30 -17 -13 -42 -46 -210 -45 -233 0 -14 9 11 19 55 22 96 50 171 60 156 4 -7 11 -2 20 13 21 40 40 41 34 3 l-6 -32 17 30 c21 39 40 57 31 30 -5 -18 -4 -18 13 3 25 28 29 28 33 -5 3 -28 3 -27 27 14 13 22 55 67 92 98 38 31 69 60 69 66 0 24 19 4 38 -38 12 -27 21 -41 22 -33 0 9 -9 33 -20 55 -33 65 -6 61 39 -5 50 -76 54 -66 6 14 -19 32 -33 62 -30 66 3 5 1 11 -5 15 -6 4 -4 15 6 31 12 18 22 23 38 18 53 -16 122 -113 157 -223 10 -31 18 -48 18 -38 1 27 -38 136 -65 183 -14 24 -43 58 -64 78 -38 34 -38 35 -19 52 20 18 22 17 67 -6 65 -34 172 -143 207 -212 16 -31 31 -55 33 -53 11 10 -67 142 -115 194 -50 56 -52 61 -34 70 40 22 199 -123 283 -259 22 -36 37 -56 34 -45 -26 80 -131 210 -227 282 -55 41 -67 54 -46 49 55 -13 134 -47 212 -91 52 -29 70 -36 50 -19 -41 34 -168 98 -235 118 -65 19 -130 48 -130 59 0 16 130 6 219 -19 51 -14 99 -23 106 -20 13 5 179 -88 220 -122 18 -16 19 -16 6 0 -16 21 -146 105 -221 143 -73 37 -50 42 44 11 119 -40 308 -143 386 -210 l25 -21 -20 24 c-28 34 -176 131 -272 179 -90 46 -278 106 -307 98 -14 -4 -16 -2 -8 6 17 17 106 22 164 8 78 -18 187 -71 281 -135 45 -32 73 -48 63 -36 -30 33 -173 122 -251 155 -65 28 -82 31 -220 36 -150 5 -150 5 -118 23 61 33 220 17 383 -38 40 -14 75 -23 77 -21 2 1 -32 17 -76 34 -67 27 -160 48 -281 64 -40 6 114 39 210 46 120 7 70 24 -77 25 -62 1 -107 4 -100 9 21 13 199 9 298 -8 173 -30 368 -99 459 -164 17 -12 30 -19 30 -15 0 11 -135 93 -195 118 -157 65 -344 101 -497 95 l-99 -4 38 33 c36 30 103 53 156 53 13 0 27 4 33 9 5 6 36 16 69 24 92 23 26 20 -88 -4 -56 -11 -121 -31 -145 -44 l-42 -24 46 60 c52 67 70 81 151 115 71 29 60 30 -36 4 -95 -27 -124 -42 -186 -100 -33 -32 -72 -57 -115 -73 -36 -13 -94 -39 -129 -56 -35 -18 -65 -30 -68 -27 -16 16 20 42 137 101 71 36 130 67 130 70 0 5 -41 -13 -163 -68 -91 -42 -91 -32 2 28 131 84 302 160 395 175 51 8 111 -4 100 -21 -3 -5 2 -6 10 -3 17 7 62 -15 106 -53 27 -23 31 -24 22 -7 -6 12 -23 29 -37 38 -14 9 -23 20 -21 25 3 4 -32 20 -77 35 -62 22 -105 29 -177 32 -93 3 -94 3 -27 -6 102 -13 111 -20 47 -36 -74 -19 -278 -120 -379 -188 l-82 -55 -43 67 c-59 91 -78 131 -116 242 -43 123 -45 182 -7 239 37 55 82 83 122 75 89 -20 184 0 252 52 23 17 38 22 50 17 10 -5 38 -6 63 -2 l45 6 -57 1 c-32 1 -58 6 -58 10 0 16 24 32 50 33 23 2 23 2 3 6 -20 4 -22 7 -12 26 24 46 52 67 88 67 74 0 155 -55 382 -259 l94 -83 -105 105 c-58 58 -132 134 -165 169 -57 60 -120 100 -275 174 -40 19 -120 39 -190 47 -20 2 -14 6 28 21 74 25 61 29 -22 6 -37 -11 -78 -22 -90 -25 -20 -6 -20 -5 3 14 39 35 9 23 -38 -14 -54 -43 -63 -44 -48 -4 17 45 83 116 131 141 83 44 254 18 421 -64 67 -32 45 -9 -25 27 -147 75 -326 97 -409 50 -51 -30 -59 -31 -39 -7 8 9 18 24 22 32 4 8 -6 -1 -23 -20 -17 -19 -52 -75 -77 -125 -47 -90 -107 -175 -125 -175 -5 0 -9 32 -9 72 0 39 -3 69 -6 65 -3 -3 -6 -44 -6 -91 1 -95 -8 -102 -38 -31 -25 57 -40 165 -40 280 0 106 19 180 71 273 37 66 30 68 -10 2z m316 -496 c8 -23 -12 -40 -31 -25 -8 7 -25 9 -40 5 -16 -4 -26 -2 -26 4 0 30 86 44 97 16z m87 -30 c11 -4 16 -19 16 -45 0 -32 -7 -48 -37 -80 -42 -44 -87 -60 -142 -48 -72 15 -117 75 -92 122 17 32 37 30 52 -5 12 -28 72 -88 89 -88 15 0 58 63 65 95 13 60 15 62 49 49z m76 -881 c0 -5 -10 -20 -23 -35 -15 -19 -53 -39 -120 -63 -113 -40 -107 -39 -107 -21 0 18 74 62 165 98 76 30 85 32 85 21z m-736 -123 c15 -15 -41 -23 -110 -17 -75 7 -97 17 -68 29 23 10 165 0 178 -12z m636 17 c0 -2 -31 -20 -69 -40 -44 -23 -72 -33 -76 -26 -9 14 -8 15 65 42 68 26 80 29 80 24z m-1410 -17 c24 -8 24 -8 -5 -9 -16 0 -37 4 -45 9 -12 8 -11 10 5 9 11 -1 31 -5 45 -9z m75 -28 c-3 -3 -11 0 -18 7 -9 10 -8 11 6 5 10 -3 15 -9 12 -12z m-15 -12 c11 -8 7 -9 -15 -4 -37 8 -45 14 -19 14 10 0 26 -5 34 -10z m77 -13 c4 -6 -2 -8 -18 -4 -13 4 -28 7 -32 7 -5 0 -6 4 -3 9 7 11 44 3 53 -12z m2 -37 c12 -7 7 -9 -19 -9 -19 0 -46 7 -60 15 -24 15 -24 15 19 9 24 -3 51 -10 60 -15z m1212 4 c-18 -8 -38 -13 -45 -11 -14 6 32 26 59 26 14 -1 10 -5 -14 -15z m-1306 -14 c3 -6 -4 -10 -17 -10 -13 0 -41 -2 -63 -5 -37 -4 -36 -4 10 9 65 18 63 18 70 6z m1423 -22 c-19 -6 -37 -6 -55 0 -25 9 -21 10 27 10 48 0 52 -1 28 -10z m131 -58 c35 -17 61 -33 58 -36 -5 -6 -207 54 -207 62 0 2 19 4 43 4 26 0 66 -11 106 -30z m-777 -20 c12 0 31 8 42 18 20 17 20 16 6 -3 -8 -11 -19 -23 -25 -27 -19 -14 -54 -8 -65 11 -16 31 -12 48 6 23 8 -12 25 -22 36 -22z m-241 14 c34 6 42 -19 9 -29 -22 -7 -50 5 -71 31 -13 16 -12 16 10 5 13 -7 36 -10 52 -7z m802 -49 c25 -10 21 -32 -7 -39 -16 -4 -37 1 -61 15 -32 19 -34 23 -18 34 16 12 38 9 86 -10z m-1213 -30 c0 -6 -56 -35 -67 -35 -4 0 6 9 22 20 29 19 45 25 45 15z m328 -187 c26 -11 53 -22 62 -23 8 -2 16 -4 18 -5 1 -2 5 -3 10 -4 123 -31 175 -30 243 4 21 11 39 17 39 13 0 -5 4 -3 8 3 6 10 181 38 189 30 2 -1 -6 -15 -18 -29 -32 -42 -96 -74 -204 -103 -106 -28 -147 -28 -255 0 -30 8 -59 11 -64 6 -21 -21 -174 104 -163 133 7 18 64 8 135 -25z" fill="#ea580c"/>
<path d="M3921 2671 c13 -18 35 -49 48 -70 l23 -36 -47 45 c-26 25 -43 36 -37 25 6 -11 32 -40 57 -65 41 -39 46 -42 40 -20 -10 34 -60 113 -87 136 -20 17 -19 16 3 -15z" fill="#ea580c"/>
<path d="M3680 2652 c36 -21 112 -69 169 -105 58 -37 109 -67 115 -67 17 0 -207 150 -270 180 -85 41 -91 37 -14 -8z" fill="#ea580c"/>
<path d="M3298 2673 c7 -3 16 -2 19 1 4 3 -2 6 -13 5 -11 0 -14 -3 -6 -6z" fill="#ea580c"/>
<path d="M1571 2604 c-30 -8 -57 -17 -60 -21 -4 -3 8 -2 24 2 113 29 190 32 284 10 95 -23 183 -69 253 -133 43 -39 55 -47 40 -26 -79 114 -236 185 -407 183 -44 0 -105 -7 -134 -15z" fill="#ea580c"/>
<path d="M1694 2432 c-46 -16 -154 -86 -154 -99 0 -3 15 6 33 19 91 70 220 98 297 66 69 -29 135 -105 155 -178 6 -24 5 -23 -19 6 -14 17 -38 39 -53 49 -25 16 -25 14 7 -19 l35 -37 -30 15 c-35 17 -73 21 -170 16 -59 -2 -65 -4 -35 -10 19 -4 29 -8 23 -9 -13 -1 -140 -56 -258 -111 -33 -15 -76 -42 -95 -59 -32 -30 -33 -31 -5 -14 l29 18 -34 -50 c-19 -27 -77 -92 -130 -143 -52 -52 -84 -89 -70 -82 19 9 14 1 -20 -36 -25 -26 -38 -43 -30 -38 28 20 160 128 160 132 0 2 -17 -6 -37 -18 -30 -16 -23 -7 32 43 42 39 86 70 108 77 22 6 37 13 34 16 -2 2 -17 0 -32 -6 -15 -6 -30 -9 -32 -7 -2 2 28 34 66 70 73 69 113 86 168 72 49 -12 86 -58 41 -49 -23 5 -23 5 0 -6 13 -5 45 -34 72 -64 28 -29 64 -59 81 -66 28 -12 29 -14 12 -24 -10 -5 -40 -16 -68 -23 l-50 -13 44 5 c24 3 56 12 72 20 36 19 49 19 121 -1 42 -12 74 -30 108 -61 57 -51 75 -99 66 -178 l-5 -50 13 45 c7 25 21 88 31 141 18 97 18 97 -4 186 -21 85 -21 90 -5 128 40 95 54 208 35 275 -5 15 -8 -8 -7 -60 0 -89 -25 -206 -31 -145 -4 38 -34 157 -39 152 -2 -2 5 -47 16 -101 15 -73 17 -103 9 -118 -6 -11 -12 -18 -14 -16 -1 1 -30 57 -64 124 -34 67 -72 132 -84 145 -12 13 -21 26 -20 30 1 3 -12 19 -30 35 -32 29 -32 29 -8 2 29 -34 27 -34 -29 -7 -61 30 -143 34 -206 11z m227 -232 c28 -15 23 -30 -9 -30 -35 0 -45 9 -31 27 14 16 15 16 40 3z m-81 -52 c0 -23 42 -99 61 -109 29 -15 53 3 82 62 l26 50 14 -28 c20 -40 5 -88 -36 -113 -78 -48 -178 1 -202 101 -5 20 -2 28 17 37 30 14 38 14 38 0z" fill="#ea580c"/>
<path d="M1170 2414 c-87 -48 -134 -80 -138 -94 -4 -12 -2 -13 10 -3 8 7 31 20 52 28 l38 16 -24 -42 c-33 -59 -63 -89 -91 -89 -38 0 -87 -12 -87 -21 0 -4 23 -9 51 -11 l51 -3 -68 -67 c-38 -38 -66 -68 -62 -68 16 0 128 98 210 184 48 50 88 92 88 94 0 1 -11 0 -25 -4 -22 -5 -24 -3 -18 12 3 11 19 36 36 57 16 20 27 37 25 37 -1 -1 -23 -12 -48 -26z" fill="#ea580c"/>
<path d="M2033 2361 c12 -27 23 -45 25 -41 3 9 -35 90 -43 90 -2 0 6 -22 18 -49z" fill="#ea580c"/>
<path d="M2942 2361 c-7 -21 -12 -45 -11 -52 0 -8 7 8 15 35 9 26 13 50 11 52 -2 2 -9 -13 -15 -35z" fill="#ea580c"/>
<path d="M2332 2309 c-3 -65 -29 -196 -52 -265 -26 -75 -18 -82 10 -8 35 94 51 181 47 252 -2 50 -4 55 -5 21z" fill="#ea580c"/>
<path d="M3283 2303 c9 -2 25 -2 35 0 9 3 1 5 -18 5 -19 0 -27 -2 -17 -5z" fill="#ea580c"/>
<path d="M3355 2290 c27 -12 43 -12 25 0 -8 5 -22 9 -30 9 -10 0 -8 -3 5 -9z" fill="#ea580c"/>
<path d="M2655 2170 c0 -67 3 -111 7 -98 3 13 6 57 6 98 0 41 -3 85 -6 98 -4 13 -7 -31 -7 -98z" fill="#ea580c"/>
<path d="M4008 2239 c52 -55 64 -76 37 -66 -8 4 27 -35 78 -86 51 -51 103 -112 117 -137 l24 -45 -79 66 c-144 118 -233 180 -195 134 11 -13 163 -139 219 -182 13 -9 7 -10 -24 -3 -22 5 -68 15 -103 21 -42 8 -75 22 -100 41 -20 17 -55 39 -77 50 l-40 21 50 -48 c36 -34 42 -42 20 -30 -18 11 2 -15 52 -67 92 -95 114 -137 138 -259 23 -124 17 -125 -18 -4 -32 108 -67 189 -52 120 14 -61 25 -141 24 -170 0 -26 -3 -23 -20 23 -25 64 -36 61 -20 -4 13 -52 9 -68 -9 -32 -7 12 -22 32 -34 43 -12 11 -15 16 -6 10 13 -9 13 -8 1 8 -8 9 -16 15 -19 13 -2 -3 -30 17 -60 44 -31 27 -58 48 -60 45 -10 -9 30 -56 90 -106 59 -49 96 -90 119 -132 9 -16 8 -17 -9 -8 -11 6 -23 16 -26 23 -4 7 -4 -3 -1 -22 3 -19 8 -53 10 -75 l5 -40 -15 39 c-23 59 -28 57 -21 -4 l6 -55 -16 33 c-51 101 -183 193 -273 191 -31 -2 -36 -3 -16 -6 51 -6 73 -13 87 -26 7 -6 29 -19 48 -28 56 -26 96 -65 124 -121 27 -55 27 -70 -1 -47 -15 12 -16 12 -10 -3 3 -9 9 -34 13 -54 7 -36 8 -37 16 -15 8 23 9 24 23 5 14 -18 14 -18 16 6 1 20 2 21 6 5 5 -17 7 -15 18 10 13 29 13 28 9 -20 -4 -42 -3 -46 6 -25 17 38 41 216 34 247 -8 33 2 25 38 -30 l25 -37 9 102 c14 166 10 218 -19 282 l-27 58 43 -7 c50 -9 83 -25 127 -62 l33 -27 -8 25 c-24 76 -70 183 -94 219 -39 58 -165 185 -220 222 l-46 31 53 -54z m75 -347 c23 -25 54 -100 62 -147 6 -39 5 -38 -23 20 -16 33 -41 79 -55 103 -28 43 -17 60 16 24z" fill="#ea580c"/>
<path d="M1653 2263 c9 -2 23 -2 30 0 6 3 -1 5 -18 5 -16 0 -22 -2 -12 -5z" fill="#ea580c"/>
<path d="M3585 2230 c10 -11 20 -20 23 -20 3 0 -3 9 -13 20 -10 11 -20 20 -23 20 -3 0 3 -9 13 -20z" fill="#ea580c"/>
<path d="M1092 2178 c-51 -67 -108 -122 -147 -143 l-30 -17 43 6 c56 8 48 -7 -21 -39 l-52 -23 45 -1 45 -1 -68 -61 c-67 -61 -89 -94 -41 -62 14 9 54 22 89 28 l64 12 -16 -38 c-8 -21 -13 -44 -10 -51 3 -8 6 -6 6 5 2 30 29 74 60 96 28 20 27 17 -15 -45 -24 -36 -44 -72 -44 -80 0 -9 -5 -12 -12 -8 -8 5 -9 -15 -4 -81 7 -99 25 -149 26 -75 1 41 2 43 12 20 5 -14 8 -59 6 -101 -4 -73 -4 -76 12 -56 17 20 17 20 24 -19 10 -58 36 -133 48 -140 8 -5 9 4 4 27 l-6 34 23 -39 c21 -33 25 -36 32 -20 6 17 9 15 21 -13 l14 -33 45 35 c41 31 68 42 140 58 11 3 0 3 -25 1 -25 -2 -67 -15 -94 -29 l-49 -25 7 46 c3 26 3 45 0 41 -3 -3 -10 -30 -14 -59 l-8 -53 -1 62 c0 34 3 73 9 87 13 36 4 33 -15 -4 -9 -17 -20 -28 -25 -25 -13 8 -13 70 0 115 9 32 8 33 -5 16 -8 -11 -15 -24 -15 -30 0 -5 -3 -7 -6 -4 -3 3 2 22 10 42 8 20 12 36 9 36 -3 0 0 8 8 18 9 11 6 11 -9 -3 -12 -11 -31 -45 -42 -75 l-19 -55 -1 90 c0 62 -3 85 -10 75 -7 -11 -10 -5 -10 25 0 30 -3 36 -10 25 -7 -11 -10 -7 -10 17 0 25 -4 31 -15 27 -8 -4 -15 -3 -15 0 0 12 69 141 99 186 41 60 41 76 -1 54 -32 -17 -33 -17 -18 2 8 10 42 50 75 89 33 38 49 62 35 52 -57 -39 -60 -37 -24 15 21 29 47 64 58 78 l21 25 -29 -25 c-15 -14 -49 -54 -74 -90 -77 -110 -123 -160 -163 -180 -52 -27 -58 -25 -27 8 28 29 68 92 68 106 0 4 -9 6 -20 3 -11 -3 -20 -4 -20 -2 0 2 29 25 65 50 36 26 65 49 65 51 0 2 -18 -5 -41 -17 -44 -22 -43 -21 1 46 56 84 52 90 -8 13z" fill="#ea580c"/>
<path d="M2365 2215 c36 -109 47 -175 42 -245 -4 -57 -3 -69 5 -50 24 58 -2 245 -43 300 -9 12 -10 11 -4 -5z" fill="#ea580c"/>
<path d="M3828 2175 c11 -16 57 -68 102 -115 45 -47 68 -67 51 -45 -44 57 -177 196 -153 160z" fill="#ea580c"/>
<path d="M3483 2053 c9 -2 23 -2 30 0 6 3 -1 5 -18 5 -16 0 -22 -2 -12 -5z" fill="#ea580c"/>
<path d="M1630 2010 c25 -8 97 -13 89 -6 -2 2 -29 6 -59 9 -36 4 -46 3 -30 -3z" fill="#ea580c"/>
<path d="M1618 1963 c6 -2 18 -2 25 0 6 3 1 5 -13 5 -14 0 -19 -2 -12 -5z" fill="#ea580c"/>
<path d="M2246 1955 c-9 -26 -7 -32 5 -12 6 10 9 21 6 23 -2 3 -7 -2 -11 -11z" fill="#ea580c"/>
<path d="M1655 1949 c-28 -6 -26 -7 13 -8 42 -1 53 3 30 11 -7 2 -26 1 -43 -3z" fill="#ea580c"/>
<path d="M3358 1953 c12 -2 30 -2 40 0 9 3 -1 5 -23 4 -22 0 -30 -2 -17 -4z" fill="#ea580c"/>
<path d="M3505 1939 c-27 -11 -37 -16 -20 -13 44 8 27 -2 -48 -31 -77 -29 -122 -31 -175 -10 -33 13 -35 13 -17 0 11 -9 30 -18 43 -22 12 -3 22 -10 22 -16 0 -6 -22 -8 -62 -4 l-63 6 40 -20 40 -19 -50 5 c-49 4 -50 4 -20 -10 44 -21 133 -16 119 6 -3 5 2 9 10 9 25 0 158 65 211 104 55 39 47 43 -30 15z" fill="#ea580c"/>
<path d="M1495 1896 c88 -104 186 -162 289 -173 59 -6 125 18 162 58 17 19 13 18 -30 -5 -59 -31 -123 -34 -181 -7 -29 14 -34 20 -19 20 27 1 113 31 119 41 3 4 -18 0 -45 -11 -98 -37 -154 -23 -249 63 -79 72 -102 79 -46 14z" fill="#ea580c"/>
<path d="M3228 1923 c7 -3 16 -2 19 1 4 3 -2 6 -13 5 -11 0 -14 -3 -6 -6z" fill="#ea580c"/>
<path d="M3286 1922 c-8 -13 66 -20 118 -11 38 6 36 7 -21 8 -34 0 -68 4 -76 7 -8 3 -18 1 -21 -4z" fill="#ea580c"/>
<path d="M1665 1910 l-40 -7 40 -1 c22 0 51 4 65 8 l25 8 -25 0 c-14 -1 -43 -4 -65 -8z" fill="#ea580c"/>
<path d="M3148 1858 c5 -5 16 -8 23 -6 8 3 3 7 -10 11 -17 4 -21 3 -13 -5z" fill="#ea580c"/>
<path d="M3102 1797 c60 -58 105 -75 149 -58 22 9 20 10 -14 10 -47 1 -91 21 -148 68 -34 27 -31 22 13 -20z" fill="#ea580c"/>
<path d="M3765 1821 c33 -16 89 -47 125 -69 68 -42 90 -47 49 -12 -26 23 -168 94 -209 104 -14 4 2 -7 35 -23z" fill="#ea580c"/>
<path d="M1845 1793 c-28 -17 -33 -22 -15 -18 14 4 34 16 45 26 25 24 19 23 -30 -8z" fill="#ea580c"/>
<path d="M2788 1720 c25 -55 48 -97 50 -95 5 5 -84 195 -92 195 -2 0 16 -45 42 -100z" fill="#ea580c"/>
<path d="M1253 1760 c-31 -29 -77 -90 -71 -95 3 -3 28 22 57 55 50 57 58 82 14 40z" fill="#ea580c"/>
<path d="M3781 1726 c25 -13 68 -45 97 -71 29 -26 52 -44 52 -41 0 15 -77 89 -109 105 -56 29 -91 34 -40 7z" fill="#ea580c"/>
<path d="M2718 1640 c3 -68 0 -113 -12 -158 -9 -35 -16 -76 -15 -90 0 -22 4 -18 21 23 27 65 35 212 15 275 -13 44 -14 43 -9 -50z" fill="#ea580c"/>
<path d="M1254 1691 c-35 -21 -60 -51 -28 -32 24 13 71 50 64 51 -3 0 -19 -9 -36 -19z" fill="#ea580c"/>
<path d="M2291 1684 c0 -11 3 -14 6 -6 3 7 2 16 -1 19 -3 4 -6 -2 -5 -13z" fill="#ea580c"/>
<path d="M2276 1583 c-8 -74 1 -123 32 -171 22 -34 25 -21 5 24 -9 22 -19 79 -23 129 l-5 90 -9 -72z" fill="#ea580c"/>
<path d="M3368 1583 c7 -3 16 -2 19 1 4 3 -2 6 -13 5 -11 0 -14 -3 -6 -6z" fill="#ea580c"/>
<path d="M1508 1463 c7 -3 16 -2 19 1 4 3 -2 6 -13 5 -11 0 -14 -3 -6 -6z" fill="#ea580c"/>
<path d="M3913 1360 c8 -19 18 -46 22 -59 l7 -24 -27 21 c-39 31 -117 52 -205 56 -41 2 -61 2 -45 0 184 -25 205 -33 269 -93 27 -25 37 -30 31 -16 -4 11 -16 45 -26 75 -11 30 -24 59 -30 65 -5 5 -4 -6 4 -25z" fill="#ea580c"/>
<path d="M2321 1330 c14 -31 19 -36 19 -24 0 6 -7 19 -16 30 -14 18 -14 18 -3 -6z" fill="#ea580c"/>
<path d="M2791 1324 c-27 -23 -58 -64 -48 -64 1 0 23 20 47 45 49 50 49 60 1 19z" fill="#ea580c"/>
<path d="M2711 1324 c0 -11 3 -14 6 -6 3 7 2 16 -1 19 -3 4 -6 -2 -5 -13z" fill="#ea580c"/>
<path d="M2170 1267 c24 -26 46 -47 48 -47 10 0 -47 65 -69 79 -14 8 -6 -5 21 -32z" fill="#ea580c"/>
<path d="M2135 1130 c4 -6 11 -8 16 -5 14 9 11 15 -7 15 -8 0 -12 -5 -9 -10z" fill="#ea580c"/>
<path d="M3760 1096 c0 -3 9 -10 20 -16 11 -6 20 -8 20 -6 0 3 -9 10 -20 16 -11 6 -20 8 -20 6z" fill="#ea580c"/>
<path d="M2935 1081 c-6 -11 9 -23 19 -14 9 9 7 23 -3 23 -6 0 -12 -4 -16 -9z" fill="#ea580c"/>
<path d="M2880 1065 c0 -8 5 -15 10 -15 6 0 10 7 10 15 0 8 -4 15 -10 15 -5 0 -10 -7 -10 -15z" fill="#ea580c"/>
<path d="M2120 1060 c0 -5 5 -10 10 -10 6 0 10 5 10 10 0 6 -4 10 -10 10 -5 0 -10 -4 -10 -10z" fill="#ea580c"/>
<path d="M1790 994 c-128 -44 -340 -179 -415 -265 -11 -12 9 1 45 31 126 103 303 204 410 231 28 7 50 16 50 21 0 12 -7 10 -90 -18z" fill="#ea580c"/>
<path d="M2055 990 c3 -5 14 -10 23 -10 15 0 15 2 2 10 -20 13 -33 13 -25 0z" fill="#ea580c"/>
<path d="M2100 992 c0 -5 9 -12 21 -15 13 -3 19 -1 16 6 -5 15 -37 22 -37 9z" fill="#ea580c"/>
<path d="M2176 981 c-4 -5 -2 -12 3 -15 5 -4 12 -2 15 3 4 5 2 12 -3 15 -5 4 -12 2 -15 -3z" fill="#ea580c"/>
<path d="M2907 984 c-4 -4 -4 -10 -1 -15 6 -10 34 0 34 12 0 10 -24 12 -33 3z" fill="#ea580c"/>
<path d="M2850 970 c0 -5 7 -10 15 -10 8 0 15 5 15 10 0 6 -7 10 -15 10 -8 0 -15 -4 -15 -10z" fill="#ea580c"/>
<path d="M2825 900 c3 -5 10 -10 16 -10 5 0 9 5 9 10 0 6 -7 10 -16 10 -8 0 -12 -4 -9 -10z" fill="#ea580c"/>
<path d="M2170 889 c0 -5 5 -7 10 -4 6 3 10 8 10 11 0 2 -4 4 -10 4 -5 0 -10 -5 -10 -11z" fill="#ea580c"/>
<path d="M2228 893 c7 -3 16 -2 19 1 4 3 -2 6 -13 5 -11 0 -14 -3 -6 -6z" fill="#ea580c"/>
<path d="M2760 890 c0 -5 5 -10 10 -10 6 0 10 5 10 10 0 6 -4 10 -10 10 -5 0 -10 -4 -10 -10z" fill="#ea580c"/>
<path d="M2898 893 c7 -3 16 -2 19 1 4 3 -2 6 -13 5 -11 0 -14 -3 -6 -6z" fill="#ea580c"/>
<path d="M3860 896 c0 -2 8 -10 18 -17 15 -13 16 -12 3 4 -13 16 -21 21 -21 13z" fill="#ea580c"/>
<path d="M2270 880 c0 -5 5 -10 10 -10 6 0 10 5 10 10 0 6 -4 10 -10 10 -5 0 -10 -4 -10 -10z" fill="#ea580c"/>
<path d="M3120 867 c0 -2 15 -14 33 -27 l32 -23 -24 26 c-21 23 -41 35 -41 24z" fill="#ea580c"/>
<path d="M3000 857 c0 -2 15 -16 33 -33 l32 -29 -29 33 c-28 30 -36 37 -36 29z" fill="#ea580c"/>
<path d="M2991 644 c0 -11 3 -14 6 -6 3 7 2 16 -1 19 -3 4 -6 -2 -5 -13z" fill="#ea580c"/>
<path d="M2051 614 c0 -11 3 -14 6 -6 3 7 2 16 -1 19 -3 4 -6 -2 -5 -13z" fill="#ea580c"/>
<path d="M3202 570 c0 -14 2 -19 5 -12 2 6 2 18 0 25 -3 6 -5 1 -5 -13z" fill="#ea580c"/>
</g>
</svg>